<?xml version="1.0" encoding="utf-8" standalone="no"?>
<!DOCTYPE svg PUBLIC "-//W3C//DTD SVG 1.1//EN"
  "http://www.w3.org/Graphics/SVG/1.1/DTD/svg11.dtd">
<svg xmlns:xlink="http://www.w3.org/1999/xlink" width="476.39952pt" height="274.79952pt" viewBox="0 0 476.39952 274.79952" xmlns="http://www.w3.org/2000/svg" version="1.1">
 <metadata>
  <rdf:RDF xmlns:dc="http://purl.org/dc/elements/1.1/" xmlns:cc="http://creativecommons.org/ns#" xmlns:rdf="http://www.w3.org/1999/02/22-rdf-syntax-ns#">
   <cc:Work>
    <dc:type rdf:resource="http://purl.org/dc/dcmitype/StillImage"/>
    <dc:date>2026-09-04T13:48:25.725160</dc:date>
    <dc:format>image/svg+xml</dc:format>
    <dc:creator>
     <cc:Agent>
      <dc:title>Matplotlib v3.10.1, https://matplotlib.org/</dc:title>
     </cc:Agent>
    </dc:creator>
   </cc:Work>
  </rdf:RDF>
 </metadata>
 <defs>
  <style type="text/css">*{stroke-linejoin: round; stroke-linecap: butt}</style>
 </defs>
 <g id="figure_1">
  <g id="patch_1">
   <path d="M 0 274.79952 
L 476.39952 274.79952 
L 476.39952 0 
L 0 0 
z
" style="fill: #ffffff"/>
  </g>
  <g id="axes_1">
   <g id="patch_2">
    <path d="M 33.109063 244.710614 
L 469.19952 244.710614 
L 469.19952 19.02375 
L 33.109063 19.02375 
z
" style="fill: #ffffff"/>
   </g>
   <g id="matplotlib.axis_1">
    <g id="xtick_1">
     <g id="line2d_1">
      <defs>
       <path id="mc20c958891" d="M 0 0 
L 0 3.5 
" style="stroke: #000000; stroke-width: 0.8"/>
      </defs>
      <g>
       <use xlink:href="#mc20c958891" x="52.931356" y="244.710614" style="stroke: #000000; stroke-width: 0.8"/>
      </g>
     </g>
     <g id="text_1">
      <text style="font-size: 6px; font-family: 'Arial'; text-anchor: middle" x="52.931356" y="256.005301" transform="rotate(-0 52.931356 256.005301)">0</text>
     </g>
    </g>
    <g id="xtick_2">
     <g id="line2d_2">
      <g>
       <use xlink:href="#mc20c958891" x="132.22053" y="244.710614" style="stroke: #000000; stroke-width: 0.8"/>
      </g>
     </g>
     <g id="text_2">
      <text style="font-size: 6px; font-family: 'Arial'; text-anchor: middle" x="132.22053" y="256.005301" transform="rotate(-0 132.22053 256.005301)">1</text>
     </g>
    </g>
    <g id="xtick_3">
     <g id="line2d_3">
      <g>
       <use xlink:href="#mc20c958891" x="211.509704" y="244.710614" style="stroke: #000000; stroke-width: 0.8"/>
      </g>
     </g>
     <g id="text_3">
      <text style="font-size: 6px; font-family: 'Arial'; text-anchor: middle" x="211.509704" y="256.005301" transform="rotate(-0 211.509704 256.005301)">2</text>
     </g>
    </g>
    <g id="xtick_4">
     <g id="line2d_4">
      <g>
       <use xlink:href="#mc20c958891" x="290.798878" y="244.710614" style="stroke: #000000; stroke-width: 0.8"/>
      </g>
     </g>
     <g id="text_4">
      <text style="font-size: 6px; font-family: 'Arial'; text-anchor: middle" x="290.798878" y="256.005301" transform="rotate(-0 290.798878 256.005301)">3</text>
     </g>
    </g>
    <g id="xtick_5">
     <g id="line2d_5">
      <g>
       <use xlink:href="#mc20c958891" x="370.088052" y="244.710614" style="stroke: #000000; stroke-width: 0.8"/>
      </g>
     </g>
     <g id="text_5">
      <text style="font-size: 6px; font-family: 'Arial'; text-anchor: middle" x="370.088052" y="256.005301" transform="rotate(-0 370.088052 256.005301)">4</text>
     </g>
    </g>
    <g id="xtick_6">
     <g id="line2d_6">
      <g>
       <use xlink:href="#mc20c958891" x="449.377226" y="244.710614" style="stroke: #000000; stroke-width: 0.8"/>
      </g>
     </g>
     <g id="text_6">
      <text style="font-size: 6px; font-family: 'Arial'; text-anchor: middle" x="449.377226" y="256.005301" transform="rotate(-0 449.377226 256.005301)">5</text>
     </g>
    </g>
    <g id="text_7">
     <text style="font-size: 7px; font-family: 'Arial'; text-anchor: middle" x="251.154291" y="266.20827" transform="rotate(-0 251.154291 266.20827)">Included recursive observer depth</text>
    </g>
   </g>
   <g id="matplotlib.axis_2">
    <g id="ytick_1">
     <g id="line2d_7">
      <defs>
       <path id="m1be107c893" d="M 0 0 
L -3.5 0 
" style="stroke: #000000; stroke-width: 0.8"/>
      </defs>
      <g>
       <use xlink:href="#m1be107c893" x="33.109063" y="234.45212" style="stroke: #000000; stroke-width: 0.8"/>
      </g>
     </g>
     <g id="text_8">
      <text style="font-size: 6px; font-family: 'Arial'; text-anchor: end" x="26.109063" y="236.599464" transform="rotate(-0 26.109063 236.599464)">0.0</text>
     </g>
    </g>
    <g id="ytick_2">
     <g id="line2d_8">
      <g>
       <use xlink:href="#m1be107c893" x="33.109063" y="192.99174" style="stroke: #000000; stroke-width: 0.8"/>
      </g>
     </g>
     <g id="text_9">
      <text style="font-size: 6px; font-family: 'Arial'; text-anchor: end" x="26.109063" y="195.139084" transform="rotate(-0 26.109063 195.139084)">0.2</text>
     </g>
    </g>
    <g id="ytick_3">
     <g id="line2d_9">
      <g>
       <use xlink:href="#m1be107c893" x="33.109063" y="151.53136" style="stroke: #000000; stroke-width: 0.8"/>
      </g>
     </g>
     <g id="text_10">
      <text style="font-size: 6px; font-family: 'Arial'; text-anchor: end" x="26.109063" y="153.678704" transform="rotate(-0 26.109063 153.678704)">0.4</text>
     </g>
    </g>
    <g id="ytick_4">
     <g id="line2d_10">
      <g>
       <use xlink:href="#m1be107c893" x="33.109063" y="110.070981" style="stroke: #000000; stroke-width: 0.8"/>
      </g>
     </g>
     <g id="text_11">
      <text style="font-size: 6px; font-family: 'Arial'; text-anchor: end" x="26.109063" y="112.218324" transform="rotate(-0 26.109063 112.218324)">0.6</text>
     </g>
    </g>
    <g id="ytick_5">
     <g id="line2d_11">
      <g>
       <use xlink:href="#m1be107c893" x="33.109063" y="68.610601" style="stroke: #000000; stroke-width: 0.8"/>
      </g>
     </g>
     <g id="text_12">
      <text style="font-size: 6px; font-family: 'Arial'; text-anchor: end" x="26.109063" y="70.757945" transform="rotate(-0 26.109063 70.757945)">0.8</text>
     </g>
    </g>
    <g id="ytick_6">
     <g id="line2d_12">
      <g>
       <use xlink:href="#m1be107c893" x="33.109063" y="27.150221" style="stroke: #000000; stroke-width: 0.8"/>
      </g>
     </g>
     <g id="text_13">
      <text style="font-size: 6px; font-family: 'Arial'; text-anchor: end" x="26.109063" y="29.297565" transform="rotate(-0 26.109063 29.297565)">1.0</text>
     </g>
    </g>
    <g id="text_14">
     <text style="font-size: 7px; font-family: 'Arial'; text-anchor: middle" x="12.295781" y="131.867182" transform="rotate(-90 12.295781 131.867182)">Cross-validated Master-state reconstructability</text>
    </g>
   </g>
   <g id="line2d_13">
    <path d="M 52.931356 234.45212 
L 132.22053 191.556317 
L 211.509704 187.664918 
L 290.798878 187.512747 
L 370.088052 185.720013 
L 449.377226 185.99721 
" clip-path="url(#p3f1442daf6)" style="fill: none; stroke: #0072b2; stroke-width: 1.5; stroke-linecap: square"/>
    <defs>
     <path id="m083f9589be" d="M 0 3 
C 0.795609 3 1.55874 2.683901 2.12132 2.12132 
C 2.683901 1.55874 3 0.795609 3 0 
C 3 -0.795609 2.683901 -1.55874 2.12132 -2.12132 
C 1.55874 -2.683901 0.795609 -3 0 -3 
C -0.795609 -3 -1.55874 -2.683901 -2.12132 -2.12132 
C -2.683901 -1.55874 -3 -0.795609 -3 0 
C -3 0.795609 -2.683901 1.55874 -2.12132 2.12132 
C -1.55874 2.683901 -0.795609 3 0 3 
z
" style="stroke: #0072b2"/>
    </defs>
    <g clip-path="url(#p3f1442daf6)">
     <use xlink:href="#m083f9589be" x="52.931356" y="234.45212" style="fill: #0072b2; stroke: #0072b2"/>
     <use xlink:href="#m083f9589be" x="132.22053" y="191.556317" style="fill: #0072b2; stroke: #0072b2"/>
     <use xlink:href="#m083f9589be" x="211.509704" y="187.664918" style="fill: #0072b2; stroke: #0072b2"/>
     <use xlink:href="#m083f9589be" x="290.798878" y="187.512747" style="fill: #0072b2; stroke: #0072b2"/>
     <use xlink:href="#m083f9589be" x="370.088052" y="185.720013" style="fill: #0072b2; stroke: #0072b2"/>
     <use xlink:href="#m083f9589be" x="449.377226" y="185.99721" style="fill: #0072b2; stroke: #0072b2"/>
    </g>
   </g>
   <g id="line2d_14">
    <path d="M 52.931356 115.575298 
L 132.22053 29.282244 
L 211.509704 29.445814 
L 290.798878 29.445814 
L 370.088052 29.389617 
L 449.377226 29.406776 
" clip-path="url(#p3f1442daf6)" style="fill: none; stroke: #e69f00; stroke-width: 1.5; stroke-linecap: square"/>
    <defs>
     <path id="m22437f3480" d="M 0 3 
C 0.795609 3 1.55874 2.683901 2.12132 2.12132 
C 2.683901 1.55874 3 0.795609 3 0 
C 3 -0.795609 2.683901 -1.55874 2.12132 -2.12132 
C 1.55874 -2.683901 0.795609 -3 0 -3 
C -0.795609 -3 -1.55874 -2.683901 -2.12132 -2.12132 
C -2.683901 -1.55874 -3 -0.795609 -3 0 
C -3 0.795609 -2.683901 1.55874 -2.12132 2.12132 
C -1.55874 2.683901 -0.795609 3 0 3 
z
" style="stroke: #e69f00"/>
    </defs>
    <g clip-path="url(#p3f1442daf6)">
     <use xlink:href="#m22437f3480" x="52.931356" y="115.575298" style="fill: #e69f00; stroke: #e69f00"/>
     <use xlink:href="#m22437f3480" x="132.22053" y="29.282244" style="fill: #e69f00; stroke: #e69f00"/>
     <use xlink:href="#m22437f3480" x="211.509704" y="29.445814" style="fill: #e69f00; stroke: #e69f00"/>
     <use xlink:href="#m22437f3480" x="290.798878" y="29.445814" style="fill: #e69f00; stroke: #e69f00"/>
     <use xlink:href="#m22437f3480" x="370.088052" y="29.389617" style="fill: #e69f00; stroke: #e69f00"/>
     <use xlink:href="#m22437f3480" x="449.377226" y="29.406776" style="fill: #e69f00; stroke: #e69f00"/>
    </g>
   </g>
   <g id="line2d_15">
    <path d="M 52.931356 121.400196 
L 132.22053 38.649605 
L 211.509704 40.567909 
L 290.798878 41.243733 
L 370.088052 42.399359 
L 449.377226 42.602051 
" clip-path="url(#p3f1442daf6)" style="fill: none; stroke: #009e73; stroke-width: 1.5; stroke-linecap: square"/>
    <defs>
     <path id="m13929214a5" d="M 0 3 
C 0.795609 3 1.55874 2.683901 2.12132 2.12132 
C 2.683901 1.55874 3 0.795609 3 0 
C 3 -0.795609 2.683901 -1.55874 2.12132 -2.12132 
C 1.55874 -2.683901 0.795609 -3 0 -3 
C -0.795609 -3 -1.55874 -2.683901 -2.12132 -2.12132 
C -2.683901 -1.55874 -3 -0.795609 -3 0 
C -3 0.795609 -2.683901 1.55874 -2.12132 2.12132 
C -1.55874 2.683901 -0.795609 3 0 3 
z
" style="stroke: #009e73"/>
    </defs>
    <g clip-path="url(#p3f1442daf6)">
     <use xlink:href="#m13929214a5" x="52.931356" y="121.400196" style="fill: #009e73; stroke: #009e73"/>
     <use xlink:href="#m13929214a5" x="132.22053" y="38.649605" style="fill: #009e73; stroke: #009e73"/>
     <use xlink:href="#m13929214a5" x="211.509704" y="40.567909" style="fill: #009e73; stroke: #009e73"/>
     <use xlink:href="#m13929214a5" x="290.798878" y="41.243733" style="fill: #009e73; stroke: #009e73"/>
     <use xlink:href="#m13929214a5" x="370.088052" y="42.399359" style="fill: #009e73; stroke: #009e73"/>
     <use xlink:href="#m13929214a5" x="449.377226" y="42.602051" style="fill: #009e73; stroke: #009e73"/>
    </g>
   </g>
   <g id="patch_3">
    <path d="M 33.109063 244.710614 
L 33.109063 19.02375 
" style="fill: none; stroke: #000000; stroke-width: 0.8; stroke-linejoin: miter; stroke-linecap: square"/>
   </g>
   <g id="patch_4">
    <path d="M 469.19952 244.710614 
L 469.19952 19.02375 
" style="fill: none; stroke: #000000; stroke-width: 0.8; stroke-linejoin: miter; stroke-linecap: square"/>
   </g>
   <g id="patch_5">
    <path d="M 33.109063 244.710614 
L 469.19952 244.710614 
" style="fill: none; stroke: #000000; stroke-width: 0.8; stroke-linejoin: miter; stroke-linecap: square"/>
   </g>
   <g id="patch_6">
    <path d="M 33.109063 19.02375 
L 469.19952 19.02375 
" style="fill: none; stroke: #000000; stroke-width: 0.8; stroke-linejoin: miter; stroke-linecap: square"/>
   </g>
   <g id="text_15">
    <text style="font-weight: 700; font-size: 8px; font-family: 'Arial'; text-anchor: middle" x="251.154291" y="13.02375" transform="rotate(-0 251.154291 13.02375)">Marginal information across recursive observer depth</text>
   </g>
   <g id="legend_1">
    <g id="line2d_16">
     <path d="M 38.509063 26.618437 
L 44.509063 26.618437 
L 50.509063 26.618437 
" style="fill: none; stroke: #0072b2; stroke-width: 1.5; stroke-linecap: square"/>
     <g>
      <use xlink:href="#m083f9589be" x="44.509063" y="26.618437" style="fill: #0072b2; stroke: #0072b2"/>
     </g>
    </g>
    <g id="text_16">
     <text style="font-size: 6px; font-family: 'Arial'; text-anchor: start" x="55.309063" y="28.718437" transform="rotate(-0 55.309063 28.718437)">depmap_prism</text>
    </g>
    <g id="line2d_17">
     <path d="M 38.509063 35.105625 
L 44.509063 35.105625 
L 50.509063 35.105625 
" style="fill: none; stroke: #e69f00; stroke-width: 1.5; stroke-linecap: square"/>
     <g>
      <use xlink:href="#m22437f3480" x="44.509063" y="35.105625" style="fill: #e69f00; stroke: #e69f00"/>
     </g>
    </g>
    <g id="text_17">
     <text style="font-size: 6px; font-family: 'Arial'; text-anchor: start" x="55.309063" y="37.205625" transform="rotate(-0 55.309063 37.205625)">lincs</text>
    </g>
    <g id="line2d_18">
     <path d="M 38.509063 43.592812 
L 44.509063 43.592812 
L 50.509063 43.592812 
" style="fill: none; stroke: #009e73; stroke-width: 1.5; stroke-linecap: square"/>
     <g>
      <use xlink:href="#m13929214a5" x="44.509063" y="43.592812" style="fill: #009e73; stroke: #009e73"/>
     </g>
    </g>
    <g id="text_18">
     <text style="font-size: 6px; font-family: 'Arial'; text-anchor: start" x="55.309063" y="45.692812" transform="rotate(-0 55.309063 45.692812)">tcga</text>
    </g>
   </g>
  </g>
 </g>
 <defs>
  <clipPath id="p3f1442daf6">
   <rect x="33.109063" y="19.02375" width="436.090458" height="225.686864"/>
  </clipPath>
 </defs>
</svg>
